<?xml version="1.0" encoding="UTF-8"?>
<svg id="Layer_1" xmlns="http://www.w3.org/2000/svg" version="1.1" viewBox="0 0 486.3 187.4">
  <!-- Generator: Adobe Illustrator 30.5.1, SVG Export Plug-In . SVG Version: 2.1.4 Build 3)  -->
  <path d="M10.5,59.5c.6-.6,1.6-.6,2.3,0l50.9,50.9,19.5-19.5c.6-.6,1.6-.6,2.3,0l10,10c.6.6.6,1.7,0,2.3l-14.4,14.4v10.4l45.8,45.8c.6.6.6,1.7,0,2.3l-10,10c-.6.6-1.6.6-2.3,0l-50.9-50.9-50.9,50.9c-.6.6-1.6.6-2.3,0L.5,176.1c-.6-.6-.6-1.7,0-2.3l45.8-45.8v-10.4L.5,71.8c-.6-.6-.6-1.7,0-2.3l10-10Z"/>
  <path d="M374.1,151.7c0-2.5,1-4.9,2.7-6.7l91-93.6c.4-.5.7-1.1.7-1.7v-7.4c0-.6-.2-1.2-.7-1.7l-18.9-19.9c-.4-.5-1.1-.7-1.7-.7h-37.9c-.6,0-1.3.3-1.7.7l-22.9,23c-.9.9-2.5.9-3.4,0l-9.1-9.1c-.9-.9-.9-2.5,0-3.4l26-26c1.8-1.8,4.3-2.8,6.8-2.8h46.7c2.6,0,5.2,1.1,7,3l24.9,26.1c1.7,1.8,2.7,4.2,2.7,6.7v15.9c0,2.5-1,4.9-2.7,6.7l-91,93.6c-.4.5-.7,1.1-.7,1.7v11.4c0,1.3,1.1,2.4,2.4,2.4h89.6c1.3,0,2.4,1.1,2.4,2.4v12.9c0,1.3-1.1,2.4-2.4,2.4h-100.1c-5.3,0-9.7-4.3-9.7-9.7v-26.1Z"/>
  <path d="M317.9,2.2c17.8,0,32.2,14.4,32.2,32.2v121.6c-.4,17.1-14.2,30.9-31.3,31.4h-41.2c-17.1-.4-30.9-14.2-31.3-31.4v-.8s0-120.8,0-120.8c0-17.8,14.4-32.2,32.2-32.2h39.5ZM263.8,144.8v10.5c0,8,6.5,14.5,14.5,14.5h39.5c8,0,14.5-6.5,14.5-14.5v-79l-68.5,68.6ZM278.3,19.9c-8,0-14.5,6.5-14.5,14.5v85.3l68.5-68.6v-16.7c0-8-6.5-14.5-14.5-14.5h-39.5Z"/>
  <path d="M199.3,0c1.3,0,2.4,1.1,2.4,2.4v78.6c0,1.3,1.1,2.4,2.4,2.4h17.3c1.3,0,2.4,1.1,2.4,2.4v12.9c0,1.3-1.1,2.4-2.4,2.4h-17.3c-1.3,0-2.4,1.1-2.4,2.4v81.5c0,1.3-1.1,2.4-2.4,2.4h-12.9c-1.3,0-2.4-1.1-2.4-2.4v-81.5c0-1.3-1.1-2.4-2.4-2.4h-60.8c-.6,0-1.3-.3-1.7-.7l-21-21c-.9-.9-.9-2.5,0-3.4L172.9.7c.5-.5,1.1-.7,1.7-.7h24.7ZM123,76c-.9.9-.9,2.5,0,3.4l3.3,3.3c.5.5,1.1.7,1.7.7h53.5c1.3,0,2.4-1.1,2.4-2.4V19.9c0-1.2-1-2.2-2.2-2.2s-1.1.2-1.5.6l-57.3,57.6Z"/>
  <metadata>
    <sfw xmlns="http://ns.adobe.com/SaveForWeb/1.0/">
      <slices/>
      <sliceSourceBounds x="346" y="322.45" width="486.25" height="187.43" bottomLeftOrigin="true"/>
    </sfw>
  </metadata>
</svg>